%TF.GenerationSoftware,KiCad,Pcbnew,8.0.7*%
%TF.CreationDate,2025-01-17T17:05:41+01:00*%
%TF.ProjectId,board,626f6172-642e-46b6-9963-61645f706362,rev?*%
%TF.SameCoordinates,Original*%
%TF.FileFunction,Legend,Top*%
%TF.FilePolarity,Positive*%
%FSLAX46Y46*%
G04 Gerber Fmt 4.6, Leading zero omitted, Abs format (unit mm)*
G04 Created by KiCad (PCBNEW 8.0.7) date 2025-01-17 17:05:41*
%MOMM*%
%LPD*%
G01*
G04 APERTURE LIST*
G04 Aperture macros list*
%AMRoundRect*
0 Rectangle with rounded corners*
0 $1 Rounding radius*
0 $2 $3 $4 $5 $6 $7 $8 $9 X,Y pos of 4 corners*
0 Add a 4 corners polygon primitive as box body*
4,1,4,$2,$3,$4,$5,$6,$7,$8,$9,$2,$3,0*
0 Add four circle primitives for the rounded corners*
1,1,$1+$1,$2,$3*
1,1,$1+$1,$4,$5*
1,1,$1+$1,$6,$7*
1,1,$1+$1,$8,$9*
0 Add four rect primitives between the rounded corners*
20,1,$1+$1,$2,$3,$4,$5,0*
20,1,$1+$1,$4,$5,$6,$7,0*
20,1,$1+$1,$6,$7,$8,$9,0*
20,1,$1+$1,$8,$9,$2,$3,0*%
G04 Aperture macros list end*
%ADD10C,0.150000*%
%ADD11C,0.100000*%
%ADD12C,0.120000*%
%ADD13C,0.153000*%
%ADD14R,1.700000X1.700000*%
%ADD15O,1.700000X1.700000*%
%ADD16R,2.400000X3.100000*%
%ADD17RoundRect,0.070000X-1.100000X-0.250000X1.100000X-0.250000X1.100000X0.250000X-1.100000X0.250000X0*%
%ADD18C,0.770000*%
%ADD19RoundRect,0.225000X0.250000X-0.225000X0.250000X0.225000X-0.250000X0.225000X-0.250000X-0.225000X0*%
%ADD20R,3.500000X1.000000*%
%ADD21RoundRect,0.225000X-0.250000X0.225000X-0.250000X-0.225000X0.250000X-0.225000X0.250000X0.225000X0*%
%ADD22RoundRect,0.250000X-0.475000X0.250000X-0.475000X-0.250000X0.475000X-0.250000X0.475000X0.250000X0*%
G04 APERTURE END LIST*
D10*
X148916779Y-102418866D02*
X149678684Y-102418866D01*
X144616779Y-102188866D02*
X145378684Y-102188866D01*
X144997731Y-102569819D02*
X144997731Y-101807914D01*
D11*
X156250550Y-91256895D02*
X156174360Y-91218800D01*
X156174360Y-91218800D02*
X156136265Y-91180704D01*
X156136265Y-91180704D02*
X156098169Y-91104514D01*
X156098169Y-91104514D02*
X156098169Y-90875942D01*
X156098169Y-90875942D02*
X156136265Y-90799752D01*
X156136265Y-90799752D02*
X156174360Y-90761657D01*
X156174360Y-90761657D02*
X156250550Y-90723561D01*
X156250550Y-90723561D02*
X156364836Y-90723561D01*
X156364836Y-90723561D02*
X156441027Y-90761657D01*
X156441027Y-90761657D02*
X156479122Y-90799752D01*
X156479122Y-90799752D02*
X156517217Y-90875942D01*
X156517217Y-90875942D02*
X156517217Y-91104514D01*
X156517217Y-91104514D02*
X156479122Y-91180704D01*
X156479122Y-91180704D02*
X156441027Y-91218800D01*
X156441027Y-91218800D02*
X156364836Y-91256895D01*
X156364836Y-91256895D02*
X156250550Y-91256895D01*
X156821979Y-91218800D02*
X156898170Y-91256895D01*
X156898170Y-91256895D02*
X157050551Y-91256895D01*
X157050551Y-91256895D02*
X157126741Y-91218800D01*
X157126741Y-91218800D02*
X157164837Y-91142609D01*
X157164837Y-91142609D02*
X157164837Y-91104514D01*
X157164837Y-91104514D02*
X157126741Y-91028323D01*
X157126741Y-91028323D02*
X157050551Y-90990228D01*
X157050551Y-90990228D02*
X156936265Y-90990228D01*
X156936265Y-90990228D02*
X156860075Y-90952133D01*
X156860075Y-90952133D02*
X156821979Y-90875942D01*
X156821979Y-90875942D02*
X156821979Y-90837847D01*
X156821979Y-90837847D02*
X156860075Y-90761657D01*
X156860075Y-90761657D02*
X156936265Y-90723561D01*
X156936265Y-90723561D02*
X157050551Y-90723561D01*
X157050551Y-90723561D02*
X157126741Y-90761657D01*
X157393408Y-90723561D02*
X157698170Y-90723561D01*
X157507694Y-91256895D02*
X157507694Y-90571180D01*
X157507694Y-90571180D02*
X157545789Y-90494990D01*
X157545789Y-90494990D02*
X157621979Y-90456895D01*
X157621979Y-90456895D02*
X157698170Y-90456895D01*
X157964837Y-91180704D02*
X158002932Y-91218800D01*
X158002932Y-91218800D02*
X157964837Y-91256895D01*
X157964837Y-91256895D02*
X157926741Y-91218800D01*
X157926741Y-91218800D02*
X157964837Y-91180704D01*
X157964837Y-91180704D02*
X157964837Y-91256895D01*
X158498170Y-90456895D02*
X158574360Y-90456895D01*
X158574360Y-90456895D02*
X158650551Y-90494990D01*
X158650551Y-90494990D02*
X158688646Y-90533085D01*
X158688646Y-90533085D02*
X158726741Y-90609276D01*
X158726741Y-90609276D02*
X158764836Y-90761657D01*
X158764836Y-90761657D02*
X158764836Y-90952133D01*
X158764836Y-90952133D02*
X158726741Y-91104514D01*
X158726741Y-91104514D02*
X158688646Y-91180704D01*
X158688646Y-91180704D02*
X158650551Y-91218800D01*
X158650551Y-91218800D02*
X158574360Y-91256895D01*
X158574360Y-91256895D02*
X158498170Y-91256895D01*
X158498170Y-91256895D02*
X158421979Y-91218800D01*
X158421979Y-91218800D02*
X158383884Y-91180704D01*
X158383884Y-91180704D02*
X158345789Y-91104514D01*
X158345789Y-91104514D02*
X158307693Y-90952133D01*
X158307693Y-90952133D02*
X158307693Y-90761657D01*
X158307693Y-90761657D02*
X158345789Y-90609276D01*
X158345789Y-90609276D02*
X158383884Y-90533085D01*
X158383884Y-90533085D02*
X158421979Y-90494990D01*
X158421979Y-90494990D02*
X158498170Y-90456895D01*
X159526741Y-91256895D02*
X159069598Y-91256895D01*
X159298170Y-91256895D02*
X159298170Y-90456895D01*
X159298170Y-90456895D02*
X159221979Y-90571180D01*
X159221979Y-90571180D02*
X159145789Y-90647371D01*
X159145789Y-90647371D02*
X159069598Y-90685466D01*
X160288646Y-91256895D02*
X159831503Y-91256895D01*
X160060075Y-91256895D02*
X160060075Y-90456895D01*
X160060075Y-90456895D02*
X159983884Y-90571180D01*
X159983884Y-90571180D02*
X159907694Y-90647371D01*
X159907694Y-90647371D02*
X159831503Y-90685466D01*
D10*
X140769636Y-91469819D02*
X140674398Y-91422200D01*
X140674398Y-91422200D02*
X140626779Y-91374580D01*
X140626779Y-91374580D02*
X140579160Y-91279342D01*
X140579160Y-91279342D02*
X140579160Y-90993628D01*
X140579160Y-90993628D02*
X140626779Y-90898390D01*
X140626779Y-90898390D02*
X140674398Y-90850771D01*
X140674398Y-90850771D02*
X140769636Y-90803152D01*
X140769636Y-90803152D02*
X140912493Y-90803152D01*
X140912493Y-90803152D02*
X141007731Y-90850771D01*
X141007731Y-90850771D02*
X141055350Y-90898390D01*
X141055350Y-90898390D02*
X141102969Y-90993628D01*
X141102969Y-90993628D02*
X141102969Y-91279342D01*
X141102969Y-91279342D02*
X141055350Y-91374580D01*
X141055350Y-91374580D02*
X141007731Y-91422200D01*
X141007731Y-91422200D02*
X140912493Y-91469819D01*
X140912493Y-91469819D02*
X140769636Y-91469819D01*
X141483922Y-91422200D02*
X141579160Y-91469819D01*
X141579160Y-91469819D02*
X141769636Y-91469819D01*
X141769636Y-91469819D02*
X141864874Y-91422200D01*
X141864874Y-91422200D02*
X141912493Y-91326961D01*
X141912493Y-91326961D02*
X141912493Y-91279342D01*
X141912493Y-91279342D02*
X141864874Y-91184104D01*
X141864874Y-91184104D02*
X141769636Y-91136485D01*
X141769636Y-91136485D02*
X141626779Y-91136485D01*
X141626779Y-91136485D02*
X141531541Y-91088866D01*
X141531541Y-91088866D02*
X141483922Y-90993628D01*
X141483922Y-90993628D02*
X141483922Y-90946009D01*
X141483922Y-90946009D02*
X141531541Y-90850771D01*
X141531541Y-90850771D02*
X141626779Y-90803152D01*
X141626779Y-90803152D02*
X141769636Y-90803152D01*
X141769636Y-90803152D02*
X141864874Y-90850771D01*
X142198208Y-90803152D02*
X142579160Y-90803152D01*
X142341065Y-91469819D02*
X142341065Y-90612676D01*
X142341065Y-90612676D02*
X142388684Y-90517438D01*
X142388684Y-90517438D02*
X142483922Y-90469819D01*
X142483922Y-90469819D02*
X142579160Y-90469819D01*
X142912494Y-91374580D02*
X142960113Y-91422200D01*
X142960113Y-91422200D02*
X142912494Y-91469819D01*
X142912494Y-91469819D02*
X142864875Y-91422200D01*
X142864875Y-91422200D02*
X142912494Y-91374580D01*
X142912494Y-91374580D02*
X142912494Y-91469819D01*
X143579160Y-90469819D02*
X143674398Y-90469819D01*
X143674398Y-90469819D02*
X143769636Y-90517438D01*
X143769636Y-90517438D02*
X143817255Y-90565057D01*
X143817255Y-90565057D02*
X143864874Y-90660295D01*
X143864874Y-90660295D02*
X143912493Y-90850771D01*
X143912493Y-90850771D02*
X143912493Y-91088866D01*
X143912493Y-91088866D02*
X143864874Y-91279342D01*
X143864874Y-91279342D02*
X143817255Y-91374580D01*
X143817255Y-91374580D02*
X143769636Y-91422200D01*
X143769636Y-91422200D02*
X143674398Y-91469819D01*
X143674398Y-91469819D02*
X143579160Y-91469819D01*
X143579160Y-91469819D02*
X143483922Y-91422200D01*
X143483922Y-91422200D02*
X143436303Y-91374580D01*
X143436303Y-91374580D02*
X143388684Y-91279342D01*
X143388684Y-91279342D02*
X143341065Y-91088866D01*
X143341065Y-91088866D02*
X143341065Y-90850771D01*
X143341065Y-90850771D02*
X143388684Y-90660295D01*
X143388684Y-90660295D02*
X143436303Y-90565057D01*
X143436303Y-90565057D02*
X143483922Y-90517438D01*
X143483922Y-90517438D02*
X143579160Y-90469819D01*
X144864874Y-91469819D02*
X144293446Y-91469819D01*
X144579160Y-91469819D02*
X144579160Y-90469819D01*
X144579160Y-90469819D02*
X144483922Y-90612676D01*
X144483922Y-90612676D02*
X144388684Y-90707914D01*
X144388684Y-90707914D02*
X144293446Y-90755533D01*
X145817255Y-91469819D02*
X145245827Y-91469819D01*
X145531541Y-91469819D02*
X145531541Y-90469819D01*
X145531541Y-90469819D02*
X145436303Y-90612676D01*
X145436303Y-90612676D02*
X145341065Y-90707914D01*
X145341065Y-90707914D02*
X145245827Y-90755533D01*
X150369636Y-102739819D02*
X150274398Y-102692200D01*
X150274398Y-102692200D02*
X150226779Y-102644580D01*
X150226779Y-102644580D02*
X150179160Y-102549342D01*
X150179160Y-102549342D02*
X150179160Y-102263628D01*
X150179160Y-102263628D02*
X150226779Y-102168390D01*
X150226779Y-102168390D02*
X150274398Y-102120771D01*
X150274398Y-102120771D02*
X150369636Y-102073152D01*
X150369636Y-102073152D02*
X150512493Y-102073152D01*
X150512493Y-102073152D02*
X150607731Y-102120771D01*
X150607731Y-102120771D02*
X150655350Y-102168390D01*
X150655350Y-102168390D02*
X150702969Y-102263628D01*
X150702969Y-102263628D02*
X150702969Y-102549342D01*
X150702969Y-102549342D02*
X150655350Y-102644580D01*
X150655350Y-102644580D02*
X150607731Y-102692200D01*
X150607731Y-102692200D02*
X150512493Y-102739819D01*
X150512493Y-102739819D02*
X150369636Y-102739819D01*
X151083922Y-102692200D02*
X151179160Y-102739819D01*
X151179160Y-102739819D02*
X151369636Y-102739819D01*
X151369636Y-102739819D02*
X151464874Y-102692200D01*
X151464874Y-102692200D02*
X151512493Y-102596961D01*
X151512493Y-102596961D02*
X151512493Y-102549342D01*
X151512493Y-102549342D02*
X151464874Y-102454104D01*
X151464874Y-102454104D02*
X151369636Y-102406485D01*
X151369636Y-102406485D02*
X151226779Y-102406485D01*
X151226779Y-102406485D02*
X151131541Y-102358866D01*
X151131541Y-102358866D02*
X151083922Y-102263628D01*
X151083922Y-102263628D02*
X151083922Y-102216009D01*
X151083922Y-102216009D02*
X151131541Y-102120771D01*
X151131541Y-102120771D02*
X151226779Y-102073152D01*
X151226779Y-102073152D02*
X151369636Y-102073152D01*
X151369636Y-102073152D02*
X151464874Y-102120771D01*
X151798208Y-102073152D02*
X152179160Y-102073152D01*
X151941065Y-102739819D02*
X151941065Y-101882676D01*
X151941065Y-101882676D02*
X151988684Y-101787438D01*
X151988684Y-101787438D02*
X152083922Y-101739819D01*
X152083922Y-101739819D02*
X152179160Y-101739819D01*
X152512494Y-102644580D02*
X152560113Y-102692200D01*
X152560113Y-102692200D02*
X152512494Y-102739819D01*
X152512494Y-102739819D02*
X152464875Y-102692200D01*
X152464875Y-102692200D02*
X152512494Y-102644580D01*
X152512494Y-102644580D02*
X152512494Y-102739819D01*
X152988684Y-102739819D02*
X152988684Y-101739819D01*
X152988684Y-102120771D02*
X153083922Y-102073152D01*
X153083922Y-102073152D02*
X153274398Y-102073152D01*
X153274398Y-102073152D02*
X153369636Y-102120771D01*
X153369636Y-102120771D02*
X153417255Y-102168390D01*
X153417255Y-102168390D02*
X153464874Y-102263628D01*
X153464874Y-102263628D02*
X153464874Y-102549342D01*
X153464874Y-102549342D02*
X153417255Y-102644580D01*
X153417255Y-102644580D02*
X153369636Y-102692200D01*
X153369636Y-102692200D02*
X153274398Y-102739819D01*
X153274398Y-102739819D02*
X153083922Y-102739819D01*
X153083922Y-102739819D02*
X152988684Y-102692200D01*
X154417255Y-102739819D02*
X153845827Y-102739819D01*
X154131541Y-102739819D02*
X154131541Y-101739819D01*
X154131541Y-101739819D02*
X154036303Y-101882676D01*
X154036303Y-101882676D02*
X153941065Y-101977914D01*
X153941065Y-101977914D02*
X153845827Y-102025533D01*
X155322017Y-101739819D02*
X154845827Y-101739819D01*
X154845827Y-101739819D02*
X154798208Y-102216009D01*
X154798208Y-102216009D02*
X154845827Y-102168390D01*
X154845827Y-102168390D02*
X154941065Y-102120771D01*
X154941065Y-102120771D02*
X155179160Y-102120771D01*
X155179160Y-102120771D02*
X155274398Y-102168390D01*
X155274398Y-102168390D02*
X155322017Y-102216009D01*
X155322017Y-102216009D02*
X155369636Y-102311247D01*
X155369636Y-102311247D02*
X155369636Y-102549342D01*
X155369636Y-102549342D02*
X155322017Y-102644580D01*
X155322017Y-102644580D02*
X155274398Y-102692200D01*
X155274398Y-102692200D02*
X155179160Y-102739819D01*
X155179160Y-102739819D02*
X154941065Y-102739819D01*
X154941065Y-102739819D02*
X154845827Y-102692200D01*
X154845827Y-102692200D02*
X154798208Y-102644580D01*
X155845827Y-102739819D02*
X156036303Y-102739819D01*
X156036303Y-102739819D02*
X156131541Y-102692200D01*
X156131541Y-102692200D02*
X156179160Y-102644580D01*
X156179160Y-102644580D02*
X156274398Y-102501723D01*
X156274398Y-102501723D02*
X156322017Y-102311247D01*
X156322017Y-102311247D02*
X156322017Y-101930295D01*
X156322017Y-101930295D02*
X156274398Y-101835057D01*
X156274398Y-101835057D02*
X156226779Y-101787438D01*
X156226779Y-101787438D02*
X156131541Y-101739819D01*
X156131541Y-101739819D02*
X155941065Y-101739819D01*
X155941065Y-101739819D02*
X155845827Y-101787438D01*
X155845827Y-101787438D02*
X155798208Y-101835057D01*
X155798208Y-101835057D02*
X155750589Y-101930295D01*
X155750589Y-101930295D02*
X155750589Y-102168390D01*
X155750589Y-102168390D02*
X155798208Y-102263628D01*
X155798208Y-102263628D02*
X155845827Y-102311247D01*
X155845827Y-102311247D02*
X155941065Y-102358866D01*
X155941065Y-102358866D02*
X156131541Y-102358866D01*
X156131541Y-102358866D02*
X156226779Y-102311247D01*
X156226779Y-102311247D02*
X156274398Y-102263628D01*
X156274398Y-102263628D02*
X156322017Y-102168390D01*
X156750589Y-102644580D02*
X156798208Y-102692200D01*
X156798208Y-102692200D02*
X156750589Y-102739819D01*
X156750589Y-102739819D02*
X156702970Y-102692200D01*
X156702970Y-102692200D02*
X156750589Y-102644580D01*
X156750589Y-102644580D02*
X156750589Y-102739819D01*
X157131541Y-102073152D02*
X157369636Y-102739819D01*
X157369636Y-102739819D02*
X157607731Y-102073152D01*
X158512493Y-102739819D02*
X157941065Y-102739819D01*
X158226779Y-102739819D02*
X158226779Y-101739819D01*
X158226779Y-101739819D02*
X158131541Y-101882676D01*
X158131541Y-101882676D02*
X158036303Y-101977914D01*
X158036303Y-101977914D02*
X157941065Y-102025533D01*
X158941065Y-102644580D02*
X158988684Y-102692200D01*
X158988684Y-102692200D02*
X158941065Y-102739819D01*
X158941065Y-102739819D02*
X158893446Y-102692200D01*
X158893446Y-102692200D02*
X158941065Y-102644580D01*
X158941065Y-102644580D02*
X158941065Y-102739819D01*
X159607731Y-101739819D02*
X159702969Y-101739819D01*
X159702969Y-101739819D02*
X159798207Y-101787438D01*
X159798207Y-101787438D02*
X159845826Y-101835057D01*
X159845826Y-101835057D02*
X159893445Y-101930295D01*
X159893445Y-101930295D02*
X159941064Y-102120771D01*
X159941064Y-102120771D02*
X159941064Y-102358866D01*
X159941064Y-102358866D02*
X159893445Y-102549342D01*
X159893445Y-102549342D02*
X159845826Y-102644580D01*
X159845826Y-102644580D02*
X159798207Y-102692200D01*
X159798207Y-102692200D02*
X159702969Y-102739819D01*
X159702969Y-102739819D02*
X159607731Y-102739819D01*
X159607731Y-102739819D02*
X159512493Y-102692200D01*
X159512493Y-102692200D02*
X159464874Y-102644580D01*
X159464874Y-102644580D02*
X159417255Y-102549342D01*
X159417255Y-102549342D02*
X159369636Y-102358866D01*
X159369636Y-102358866D02*
X159369636Y-102120771D01*
X159369636Y-102120771D02*
X159417255Y-101930295D01*
X159417255Y-101930295D02*
X159464874Y-101835057D01*
X159464874Y-101835057D02*
X159512493Y-101787438D01*
X159512493Y-101787438D02*
X159607731Y-101739819D01*
X144476666Y-98874819D02*
X144476666Y-99589104D01*
X144476666Y-99589104D02*
X144429047Y-99731961D01*
X144429047Y-99731961D02*
X144333809Y-99827200D01*
X144333809Y-99827200D02*
X144190952Y-99874819D01*
X144190952Y-99874819D02*
X144095714Y-99874819D01*
X144857619Y-98874819D02*
X145476666Y-98874819D01*
X145476666Y-98874819D02*
X145143333Y-99255771D01*
X145143333Y-99255771D02*
X145286190Y-99255771D01*
X145286190Y-99255771D02*
X145381428Y-99303390D01*
X145381428Y-99303390D02*
X145429047Y-99351009D01*
X145429047Y-99351009D02*
X145476666Y-99446247D01*
X145476666Y-99446247D02*
X145476666Y-99684342D01*
X145476666Y-99684342D02*
X145429047Y-99779580D01*
X145429047Y-99779580D02*
X145381428Y-99827200D01*
X145381428Y-99827200D02*
X145286190Y-99874819D01*
X145286190Y-99874819D02*
X145000476Y-99874819D01*
X145000476Y-99874819D02*
X144905238Y-99827200D01*
X144905238Y-99827200D02*
X144857619Y-99779580D01*
X144718095Y-94324819D02*
X144718095Y-95134342D01*
X144718095Y-95134342D02*
X144765714Y-95229580D01*
X144765714Y-95229580D02*
X144813333Y-95277200D01*
X144813333Y-95277200D02*
X144908571Y-95324819D01*
X144908571Y-95324819D02*
X145099047Y-95324819D01*
X145099047Y-95324819D02*
X145194285Y-95277200D01*
X145194285Y-95277200D02*
X145241904Y-95229580D01*
X145241904Y-95229580D02*
X145289523Y-95134342D01*
X145289523Y-95134342D02*
X145289523Y-94324819D01*
X146289523Y-95324819D02*
X145718095Y-95324819D01*
X146003809Y-95324819D02*
X146003809Y-94324819D01*
X146003809Y-94324819D02*
X145908571Y-94467676D01*
X145908571Y-94467676D02*
X145813333Y-94562914D01*
X145813333Y-94562914D02*
X145718095Y-94610533D01*
X155794819Y-93756666D02*
X155318628Y-94089999D01*
X155794819Y-94328094D02*
X154794819Y-94328094D01*
X154794819Y-94328094D02*
X154794819Y-93947142D01*
X154794819Y-93947142D02*
X154842438Y-93851904D01*
X154842438Y-93851904D02*
X154890057Y-93804285D01*
X154890057Y-93804285D02*
X154985295Y-93756666D01*
X154985295Y-93756666D02*
X155128152Y-93756666D01*
X155128152Y-93756666D02*
X155223390Y-93804285D01*
X155223390Y-93804285D02*
X155271009Y-93851904D01*
X155271009Y-93851904D02*
X155318628Y-93947142D01*
X155318628Y-93947142D02*
X155318628Y-94328094D01*
X155794819Y-92804285D02*
X155794819Y-93375713D01*
X155794819Y-93089999D02*
X154794819Y-93089999D01*
X154794819Y-93089999D02*
X154937676Y-93185237D01*
X154937676Y-93185237D02*
X155032914Y-93280475D01*
X155032914Y-93280475D02*
X155080533Y-93375713D01*
X155719580Y-99496666D02*
X155767200Y-99544285D01*
X155767200Y-99544285D02*
X155814819Y-99687142D01*
X155814819Y-99687142D02*
X155814819Y-99782380D01*
X155814819Y-99782380D02*
X155767200Y-99925237D01*
X155767200Y-99925237D02*
X155671961Y-100020475D01*
X155671961Y-100020475D02*
X155576723Y-100068094D01*
X155576723Y-100068094D02*
X155386247Y-100115713D01*
X155386247Y-100115713D02*
X155243390Y-100115713D01*
X155243390Y-100115713D02*
X155052914Y-100068094D01*
X155052914Y-100068094D02*
X154957676Y-100020475D01*
X154957676Y-100020475D02*
X154862438Y-99925237D01*
X154862438Y-99925237D02*
X154814819Y-99782380D01*
X154814819Y-99782380D02*
X154814819Y-99687142D01*
X154814819Y-99687142D02*
X154862438Y-99544285D01*
X154862438Y-99544285D02*
X154910057Y-99496666D01*
X154814819Y-98591904D02*
X154814819Y-99068094D01*
X154814819Y-99068094D02*
X155291009Y-99115713D01*
X155291009Y-99115713D02*
X155243390Y-99068094D01*
X155243390Y-99068094D02*
X155195771Y-98972856D01*
X155195771Y-98972856D02*
X155195771Y-98734761D01*
X155195771Y-98734761D02*
X155243390Y-98639523D01*
X155243390Y-98639523D02*
X155291009Y-98591904D01*
X155291009Y-98591904D02*
X155386247Y-98544285D01*
X155386247Y-98544285D02*
X155624342Y-98544285D01*
X155624342Y-98544285D02*
X155719580Y-98591904D01*
X155719580Y-98591904D02*
X155767200Y-98639523D01*
X155767200Y-98639523D02*
X155814819Y-98734761D01*
X155814819Y-98734761D02*
X155814819Y-98972856D01*
X155814819Y-98972856D02*
X155767200Y-99068094D01*
X155767200Y-99068094D02*
X155719580Y-99115713D01*
X146009580Y-97686666D02*
X146057200Y-97734285D01*
X146057200Y-97734285D02*
X146104819Y-97877142D01*
X146104819Y-97877142D02*
X146104819Y-97972380D01*
X146104819Y-97972380D02*
X146057200Y-98115237D01*
X146057200Y-98115237D02*
X145961961Y-98210475D01*
X145961961Y-98210475D02*
X145866723Y-98258094D01*
X145866723Y-98258094D02*
X145676247Y-98305713D01*
X145676247Y-98305713D02*
X145533390Y-98305713D01*
X145533390Y-98305713D02*
X145342914Y-98258094D01*
X145342914Y-98258094D02*
X145247676Y-98210475D01*
X145247676Y-98210475D02*
X145152438Y-98115237D01*
X145152438Y-98115237D02*
X145104819Y-97972380D01*
X145104819Y-97972380D02*
X145104819Y-97877142D01*
X145104819Y-97877142D02*
X145152438Y-97734285D01*
X145152438Y-97734285D02*
X145200057Y-97686666D01*
X145438152Y-96829523D02*
X146104819Y-96829523D01*
X145057200Y-97067618D02*
X145771485Y-97305713D01*
X145771485Y-97305713D02*
X145771485Y-96686666D01*
D11*
X148676667Y-99648704D02*
X148638571Y-99686800D01*
X148638571Y-99686800D02*
X148524286Y-99724895D01*
X148524286Y-99724895D02*
X148448095Y-99724895D01*
X148448095Y-99724895D02*
X148333809Y-99686800D01*
X148333809Y-99686800D02*
X148257619Y-99610609D01*
X148257619Y-99610609D02*
X148219524Y-99534419D01*
X148219524Y-99534419D02*
X148181428Y-99382038D01*
X148181428Y-99382038D02*
X148181428Y-99267752D01*
X148181428Y-99267752D02*
X148219524Y-99115371D01*
X148219524Y-99115371D02*
X148257619Y-99039180D01*
X148257619Y-99039180D02*
X148333809Y-98962990D01*
X148333809Y-98962990D02*
X148448095Y-98924895D01*
X148448095Y-98924895D02*
X148524286Y-98924895D01*
X148524286Y-98924895D02*
X148638571Y-98962990D01*
X148638571Y-98962990D02*
X148676667Y-99001085D01*
X148943333Y-98924895D02*
X149438571Y-98924895D01*
X149438571Y-98924895D02*
X149171905Y-99229657D01*
X149171905Y-99229657D02*
X149286190Y-99229657D01*
X149286190Y-99229657D02*
X149362381Y-99267752D01*
X149362381Y-99267752D02*
X149400476Y-99305847D01*
X149400476Y-99305847D02*
X149438571Y-99382038D01*
X149438571Y-99382038D02*
X149438571Y-99572514D01*
X149438571Y-99572514D02*
X149400476Y-99648704D01*
X149400476Y-99648704D02*
X149362381Y-99686800D01*
X149362381Y-99686800D02*
X149286190Y-99724895D01*
X149286190Y-99724895D02*
X149057619Y-99724895D01*
X149057619Y-99724895D02*
X148981428Y-99686800D01*
X148981428Y-99686800D02*
X148943333Y-99648704D01*
D10*
X152009580Y-99966666D02*
X152057200Y-100014285D01*
X152057200Y-100014285D02*
X152104819Y-100157142D01*
X152104819Y-100157142D02*
X152104819Y-100252380D01*
X152104819Y-100252380D02*
X152057200Y-100395237D01*
X152057200Y-100395237D02*
X151961961Y-100490475D01*
X151961961Y-100490475D02*
X151866723Y-100538094D01*
X151866723Y-100538094D02*
X151676247Y-100585713D01*
X151676247Y-100585713D02*
X151533390Y-100585713D01*
X151533390Y-100585713D02*
X151342914Y-100538094D01*
X151342914Y-100538094D02*
X151247676Y-100490475D01*
X151247676Y-100490475D02*
X151152438Y-100395237D01*
X151152438Y-100395237D02*
X151104819Y-100252380D01*
X151104819Y-100252380D02*
X151104819Y-100157142D01*
X151104819Y-100157142D02*
X151152438Y-100014285D01*
X151152438Y-100014285D02*
X151200057Y-99966666D01*
X151200057Y-99585713D02*
X151152438Y-99538094D01*
X151152438Y-99538094D02*
X151104819Y-99442856D01*
X151104819Y-99442856D02*
X151104819Y-99204761D01*
X151104819Y-99204761D02*
X151152438Y-99109523D01*
X151152438Y-99109523D02*
X151200057Y-99061904D01*
X151200057Y-99061904D02*
X151295295Y-99014285D01*
X151295295Y-99014285D02*
X151390533Y-99014285D01*
X151390533Y-99014285D02*
X151533390Y-99061904D01*
X151533390Y-99061904D02*
X152104819Y-99633332D01*
X152104819Y-99633332D02*
X152104819Y-99014285D01*
X154369580Y-99746666D02*
X154417200Y-99794285D01*
X154417200Y-99794285D02*
X154464819Y-99937142D01*
X154464819Y-99937142D02*
X154464819Y-100032380D01*
X154464819Y-100032380D02*
X154417200Y-100175237D01*
X154417200Y-100175237D02*
X154321961Y-100270475D01*
X154321961Y-100270475D02*
X154226723Y-100318094D01*
X154226723Y-100318094D02*
X154036247Y-100365713D01*
X154036247Y-100365713D02*
X153893390Y-100365713D01*
X153893390Y-100365713D02*
X153702914Y-100318094D01*
X153702914Y-100318094D02*
X153607676Y-100270475D01*
X153607676Y-100270475D02*
X153512438Y-100175237D01*
X153512438Y-100175237D02*
X153464819Y-100032380D01*
X153464819Y-100032380D02*
X153464819Y-99937142D01*
X153464819Y-99937142D02*
X153512438Y-99794285D01*
X153512438Y-99794285D02*
X153560057Y-99746666D01*
X154464819Y-98794285D02*
X154464819Y-99365713D01*
X154464819Y-99079999D02*
X153464819Y-99079999D01*
X153464819Y-99079999D02*
X153607676Y-99175237D01*
X153607676Y-99175237D02*
X153702914Y-99270475D01*
X153702914Y-99270475D02*
X153750533Y-99365713D01*
D12*
%TO.C,J3*%
X150830000Y-99770000D02*
X150830000Y-101100000D01*
X149500000Y-99770000D02*
X150830000Y-99770000D01*
X148230000Y-99770000D02*
X145630000Y-99770000D01*
X148230000Y-99770000D02*
X148230000Y-102430000D01*
X145630000Y-99770000D02*
X145630000Y-102430000D01*
X148230000Y-102430000D02*
X145630000Y-102430000D01*
D10*
%TO.C,U1*%
X148125000Y-90305000D02*
X152275000Y-90305000D01*
X148125000Y-95455000D02*
X152275000Y-95455000D01*
D12*
X147525000Y-90405000D02*
X147285000Y-90075000D01*
X147765000Y-90075000D01*
X147525000Y-90405000D01*
G36*
X147525000Y-90405000D02*
G01*
X147285000Y-90075000D01*
X147765000Y-90075000D01*
X147525000Y-90405000D01*
G37*
%TO.C,R1*%
X154690000Y-91715580D02*
X154690000Y-91434420D01*
X155710000Y-91715580D02*
X155710000Y-91434420D01*
D13*
%TO.C,J2*%
X143850000Y-95300000D02*
X144050000Y-95500000D01*
X144050000Y-95500000D02*
X143323000Y-95500000D01*
X144050000Y-95500000D02*
X143850000Y-95700000D01*
%TO.C,J1*%
X156900000Y-95500000D02*
X157627000Y-95500000D01*
X157427000Y-95700000D02*
X157627000Y-95500000D01*
X157627000Y-95500000D02*
X157427000Y-95300000D01*
D12*
%TO.C,C5*%
X155310000Y-97034420D02*
X155310000Y-97315580D01*
X154290000Y-97034420D02*
X154290000Y-97315580D01*
%TO.C,C4*%
X147735000Y-97138748D02*
X147735000Y-97661252D01*
X146265000Y-97138748D02*
X146265000Y-97661252D01*
%TO.C,C3*%
X149735000Y-97138748D02*
X149735000Y-97661252D01*
X148265000Y-97138748D02*
X148265000Y-97661252D01*
%TO.C,C2*%
X151735000Y-97138748D02*
X151735000Y-97661252D01*
X150265000Y-97138748D02*
X150265000Y-97661252D01*
%TO.C,C1*%
X153735000Y-97138748D02*
X153735000Y-97661252D01*
X152265000Y-97138748D02*
X152265000Y-97661252D01*
%TD*%
%LPC*%
D14*
%TO.C,J3*%
X149500000Y-101100000D03*
D15*
X146960000Y-101100000D03*
%TD*%
D16*
%TO.C,U1*%
X150200000Y-92880000D03*
D17*
X147325000Y-90975000D03*
X147325000Y-92245000D03*
X147325000Y-93515000D03*
X147325000Y-94785000D03*
X153075000Y-94785000D03*
X153075000Y-93515000D03*
X153075000Y-92245000D03*
X153075000Y-90975000D03*
D18*
X149550000Y-91580000D03*
X149550000Y-92880000D03*
X149550000Y-94180000D03*
X150850000Y-91580000D03*
X150850000Y-92880000D03*
X150850000Y-94180000D03*
%TD*%
D19*
%TO.C,R1*%
X155200000Y-92350000D03*
X155200000Y-90800000D03*
%TD*%
D20*
%TO.C,J2*%
X142350000Y-92500000D03*
X142350000Y-94500000D03*
X142350000Y-96500000D03*
X142350000Y-98500000D03*
X142350000Y-100500000D03*
%TD*%
%TO.C,J1*%
X158650000Y-92500000D03*
X158650000Y-94500000D03*
X158650000Y-96500000D03*
X158650000Y-98500000D03*
X158650000Y-100500000D03*
%TD*%
D21*
%TO.C,C5*%
X154800000Y-96400000D03*
X154800000Y-97950000D03*
%TD*%
D22*
%TO.C,C4*%
X147000000Y-96450000D03*
X147000000Y-98350000D03*
%TD*%
%TO.C,C3*%
X149000000Y-96450000D03*
X149000000Y-98350000D03*
%TD*%
%TO.C,C2*%
X151000000Y-96450000D03*
X151000000Y-98350000D03*
%TD*%
%TO.C,C1*%
X153000000Y-96450000D03*
X153000000Y-98350000D03*
%TD*%
%LPD*%
M02*
