%TF.GenerationSoftware,KiCad,Pcbnew,8.0.7*%
%TF.CreationDate,2025-01-17T17:05:41+01:00*%
%TF.ProjectId,board,626f6172-642e-46b6-9963-61645f706362,rev?*%
%TF.SameCoordinates,Original*%
%TF.FileFunction,Copper,L2,Bot*%
%TF.FilePolarity,Positive*%
%FSLAX46Y46*%
G04 Gerber Fmt 4.6, Leading zero omitted, Abs format (unit mm)*
G04 Created by KiCad (PCBNEW 8.0.7) date 2025-01-17 17:05:41*
%MOMM*%
%LPD*%
G01*
G04 APERTURE LIST*
G04 Aperture macros list*
%AMFreePoly0*
4,1,5,0.500000,-1.800000,-0.500000,-1.800000,-0.500000,1.800000,0.500000,1.900000,0.500000,-1.800000,0.500000,-1.800000,$1*%
%AMFreePoly1*
4,1,5,0.500000,-1.500000,-0.500000,-1.500000,-0.500000,2.300000,0.500000,2.400000,0.500000,-1.500000,0.500000,-1.500000,$1*%
%AMFreePoly2*
4,1,5,0.500000,1.800000,0.500000,-1.800000,-0.500000,-1.800000,-0.500000,1.900000,0.500000,1.800000,0.500000,1.800000,$1*%
%AMFreePoly3*
4,1,5,0.500000,1.700000,0.500000,-1.700000,-0.500000,-1.700000,-0.500000,1.800000,0.500000,1.700000,0.500000,1.700000,$1*%
%AMFreePoly4*
4,1,5,0.500000,1.900000,0.500000,-1.900000,-0.500000,-1.900000,-0.500000,2.000000,0.500000,1.900000,0.500000,1.900000,$1*%
G04 Aperture macros list end*
%TA.AperFunction,ComponentPad*%
%ADD10R,1.700000X1.700000*%
%TD*%
%TA.AperFunction,ComponentPad*%
%ADD11O,1.700000X1.700000*%
%TD*%
%TA.AperFunction,ComponentPad*%
%ADD12C,0.630000*%
%TD*%
%TA.AperFunction,SMDPad,CuDef*%
%ADD13R,2.600000X3.300000*%
%TD*%
%TA.AperFunction,SMDPad,CuDef*%
%ADD14FreePoly0,270.000000*%
%TD*%
%TA.AperFunction,SMDPad,CuDef*%
%ADD15FreePoly1,270.000000*%
%TD*%
%TA.AperFunction,SMDPad,CuDef*%
%ADD16R,4.000000X1.000000*%
%TD*%
%TA.AperFunction,SMDPad,CuDef*%
%ADD17FreePoly2,270.000000*%
%TD*%
%TA.AperFunction,SMDPad,CuDef*%
%ADD18FreePoly3,270.000000*%
%TD*%
%TA.AperFunction,SMDPad,CuDef*%
%ADD19FreePoly0,90.000000*%
%TD*%
%TA.AperFunction,SMDPad,CuDef*%
%ADD20R,3.500000X1.000000*%
%TD*%
%TA.AperFunction,SMDPad,CuDef*%
%ADD21FreePoly2,90.000000*%
%TD*%
%TA.AperFunction,SMDPad,CuDef*%
%ADD22FreePoly4,90.000000*%
%TD*%
%TA.AperFunction,ViaPad*%
%ADD23C,0.500000*%
%TD*%
%TA.AperFunction,Conductor*%
%ADD24C,0.500000*%
%TD*%
%TA.AperFunction,Conductor*%
%ADD25C,0.200000*%
%TD*%
G04 APERTURE END LIST*
D10*
%TO.P,J3,1,Pin_1*%
%TO.N,GND*%
X149500000Y-101100000D03*
D11*
%TO.P,J3,2,Pin_2*%
%TO.N,/mc/V+*%
X146960000Y-101100000D03*
%TD*%
D12*
%TO.P,U1,9,GND*%
%TO.N,GND*%
X149550000Y-91580000D03*
X149550000Y-92880000D03*
X149550000Y-94180000D03*
D13*
X150200000Y-92880000D03*
D12*
X150850000Y-91580000D03*
X150850000Y-92880000D03*
X150850000Y-94180000D03*
%TD*%
D14*
%TO.P,J2,6,GPIO4*%
%TO.N,unconnected-(J2-GPIO4-Pad6)*%
X142400000Y-92500000D03*
D15*
%TO.P,J2,7,GPIO5*%
%TO.N,unconnected-(J2-GPIO5-Pad7)*%
X142100000Y-94500000D03*
D16*
%TO.P,J2,8,GND*%
%TO.N,GND*%
X142600000Y-96500000D03*
D17*
%TO.P,J2,9,3.3V*%
%TO.N,/mc/VREF*%
X142400000Y-98500000D03*
D18*
%TO.P,J2,10,5V*%
%TO.N,Net-(J1-5V)*%
X142300000Y-100500000D03*
%TD*%
D19*
%TO.P,J1,6,GPIO4*%
%TO.N,unconnected-(J1-GPIO4-Pad6)*%
X158600000Y-92500000D03*
D20*
%TO.P,J1,7,GPIO5*%
%TO.N,unconnected-(J1-GPIO5-Pad7)*%
X158650000Y-94500000D03*
%TO.P,J1,8,GND*%
%TO.N,GND*%
X158650000Y-96500000D03*
D21*
%TO.P,J1,9,3.3V*%
%TO.N,/mc/VREF*%
X158600000Y-98500000D03*
D22*
%TO.P,J1,10,5V*%
%TO.N,Net-(J1-5V)*%
X158500000Y-100500000D03*
%TD*%
D23*
%TO.N,/mc/VREF*%
X152400000Y-101650000D03*
X145100000Y-98450000D03*
%TO.N,/mc/OUT2*%
X156250000Y-93250000D03*
X156200000Y-95800000D03*
%TO.N,GND*%
X156425000Y-91375000D03*
X150000000Y-98350000D03*
%TO.N,/mc/V+*%
X148000000Y-96400000D03*
%TO.N,/mc/IN2*%
X145500000Y-92850000D03*
X145500000Y-94300000D03*
%TD*%
D24*
%TO.N,GND*%
X148123288Y-95390000D02*
X149500000Y-95390000D01*
X147013288Y-96500000D02*
X148123288Y-95390000D01*
X142600000Y-96500000D02*
X147013288Y-96500000D01*
X149500000Y-95390000D02*
X149500000Y-94230000D01*
X149500000Y-98400000D02*
X149500000Y-95390000D01*
X154100000Y-96500000D02*
X149500000Y-101100000D01*
X158650000Y-96500000D02*
X154100000Y-96500000D01*
X156250000Y-91550000D02*
X156425000Y-91375000D01*
X150880000Y-91550000D02*
X156250000Y-91550000D01*
X149500000Y-94230000D02*
X149550000Y-94180000D01*
X150850000Y-91580000D02*
X150880000Y-91550000D01*
%TO.N,/mc/VREF*%
X142450000Y-98450000D02*
X142400000Y-98500000D01*
X145100000Y-98450000D02*
X142450000Y-98450000D01*
X154900000Y-98950000D02*
X152400000Y-101450000D01*
X155350000Y-98500000D02*
X154900000Y-98950000D01*
X158600000Y-98500000D02*
X155350000Y-98500000D01*
X152400000Y-101450000D02*
X152400000Y-101650000D01*
%TO.N,Net-(J1-5V)*%
X145000000Y-101100000D02*
X146400000Y-102500000D01*
X142900000Y-101100000D02*
X145000000Y-101100000D01*
X152700000Y-102500000D02*
X154700000Y-100500000D01*
X154700000Y-100500000D02*
X158500000Y-100500000D01*
X142300000Y-100500000D02*
X142900000Y-101100000D01*
X146400000Y-102500000D02*
X152700000Y-102500000D01*
D25*
%TO.N,/mc/OUT2*%
X156250000Y-95750000D02*
X156200000Y-95800000D01*
X156250000Y-93250000D02*
X156250000Y-95750000D01*
D24*
%TO.N,GND*%
X149550000Y-98350000D02*
X149500000Y-98400000D01*
X149500000Y-101100000D02*
X149500000Y-98400000D01*
X150000000Y-98350000D02*
X149550000Y-98350000D01*
%TO.N,/mc/V+*%
X146960000Y-97440000D02*
X148000000Y-96400000D01*
X146960000Y-101100000D02*
X146960000Y-97440000D01*
D25*
%TO.N,/mc/IN2*%
X145500000Y-94300000D02*
X145500000Y-92850000D01*
%TD*%
M02*
