%TF.GenerationSoftware,KiCad,Pcbnew,8.0.7*%
%TF.CreationDate,2025-01-17T17:05:41+01:00*%
%TF.ProjectId,board,626f6172-642e-46b6-9963-61645f706362,rev?*%
%TF.SameCoordinates,Original*%
%TF.FileFunction,Copper,L1,Top*%
%TF.FilePolarity,Positive*%
%FSLAX46Y46*%
G04 Gerber Fmt 4.6, Leading zero omitted, Abs format (unit mm)*
G04 Created by KiCad (PCBNEW 8.0.7) date 2025-01-17 17:05:41*
%MOMM*%
%LPD*%
G01*
G04 APERTURE LIST*
G04 Aperture macros list*
%AMRoundRect*
0 Rectangle with rounded corners*
0 $1 Rounding radius*
0 $2 $3 $4 $5 $6 $7 $8 $9 X,Y pos of 4 corners*
0 Add a 4 corners polygon primitive as box body*
4,1,4,$2,$3,$4,$5,$6,$7,$8,$9,$2,$3,0*
0 Add four circle primitives for the rounded corners*
1,1,$1+$1,$2,$3*
1,1,$1+$1,$4,$5*
1,1,$1+$1,$6,$7*
1,1,$1+$1,$8,$9*
0 Add four rect primitives between the rounded corners*
20,1,$1+$1,$2,$3,$4,$5,0*
20,1,$1+$1,$4,$5,$6,$7,0*
20,1,$1+$1,$6,$7,$8,$9,0*
20,1,$1+$1,$8,$9,$2,$3,0*%
G04 Aperture macros list end*
%TA.AperFunction,ComponentPad*%
%ADD10R,1.700000X1.700000*%
%TD*%
%TA.AperFunction,ComponentPad*%
%ADD11O,1.700000X1.700000*%
%TD*%
%TA.AperFunction,SMDPad,CuDef*%
%ADD12R,2.200000X0.500000*%
%TD*%
%TA.AperFunction,ComponentPad*%
%ADD13C,0.630000*%
%TD*%
%TA.AperFunction,SMDPad,CuDef*%
%ADD14R,2.950000X4.900000*%
%TD*%
%TA.AperFunction,SMDPad,CuDef*%
%ADD15RoundRect,0.225000X0.250000X-0.225000X0.250000X0.225000X-0.250000X0.225000X-0.250000X-0.225000X0*%
%TD*%
%TA.AperFunction,SMDPad,CuDef*%
%ADD16R,3.500000X1.000000*%
%TD*%
%TA.AperFunction,SMDPad,CuDef*%
%ADD17RoundRect,0.225000X-0.250000X0.225000X-0.250000X-0.225000X0.250000X-0.225000X0.250000X0.225000X0*%
%TD*%
%TA.AperFunction,SMDPad,CuDef*%
%ADD18RoundRect,0.250000X-0.475000X0.250000X-0.475000X-0.250000X0.475000X-0.250000X0.475000X0.250000X0*%
%TD*%
%TA.AperFunction,ViaPad*%
%ADD19C,0.500000*%
%TD*%
%TA.AperFunction,Conductor*%
%ADD20C,0.500000*%
%TD*%
%TA.AperFunction,Conductor*%
%ADD21C,0.200000*%
%TD*%
G04 APERTURE END LIST*
D10*
%TO.P,J3,1,Pin_1*%
%TO.N,GND*%
X149500000Y-101100000D03*
D11*
%TO.P,J3,2,Pin_2*%
%TO.N,/mc/V+*%
X146960000Y-101100000D03*
%TD*%
D12*
%TO.P,U1,1,GND*%
%TO.N,GND*%
X147325000Y-90975000D03*
%TO.P,U1,2,IN2*%
%TO.N,/mc/IN2*%
X147325000Y-92245000D03*
%TO.P,U1,3,IN1*%
%TO.N,/mc/IN1*%
X147325000Y-93515000D03*
%TO.P,U1,4,VREF*%
%TO.N,/mc/VREF*%
X147325000Y-94785000D03*
%TO.P,U1,5,VM*%
%TO.N,/mc/V+*%
X153075000Y-94785000D03*
%TO.P,U1,6,OUT1*%
%TO.N,/mc/OUT1*%
X153075000Y-93515000D03*
%TO.P,U1,7,ISEN*%
%TO.N,/mc/ISEN*%
X153075000Y-92245000D03*
%TO.P,U1,8,OUT2*%
%TO.N,/mc/OUT2*%
X153075000Y-90975000D03*
D13*
%TO.P,U1,9,GND*%
%TO.N,GND*%
X149550000Y-91580000D03*
X149550000Y-92880000D03*
X149550000Y-94180000D03*
D14*
X150200000Y-92880000D03*
D13*
X150850000Y-91580000D03*
X150850000Y-92880000D03*
X150850000Y-94180000D03*
%TD*%
D15*
%TO.P,R1,1*%
%TO.N,/mc/ISEN*%
X155200000Y-92350000D03*
%TO.P,R1,2*%
%TO.N,GND*%
X155200000Y-90800000D03*
%TD*%
D16*
%TO.P,J2,1,GND*%
%TO.N,GND*%
X142350000Y-92500000D03*
%TO.P,J2,2,GPIO0*%
%TO.N,/mc/IN1*%
X142350000Y-94500000D03*
%TO.P,J2,3,GPIO1*%
%TO.N,/mc/IN2*%
X142350000Y-96500000D03*
%TO.P,J2,4,GPIO2*%
%TO.N,unconnected-(J2-GPIO2-Pad4)*%
X142350000Y-98500000D03*
%TO.P,J2,5,GPIO3*%
%TO.N,unconnected-(J2-GPIO3-Pad5)*%
X142350000Y-100500000D03*
%TD*%
%TO.P,J1,1,GND*%
%TO.N,GND*%
X158650000Y-92500000D03*
%TO.P,J1,2,GPIO0*%
%TO.N,/mc/OUT1*%
X158650000Y-94500000D03*
%TO.P,J1,3,GPIO1*%
%TO.N,/mc/OUT2*%
X158650000Y-96500000D03*
%TO.P,J1,4,GPIO2*%
%TO.N,unconnected-(J1-GPIO2-Pad4)*%
X158650000Y-98500000D03*
%TO.P,J1,5,GPIO3*%
%TO.N,unconnected-(J1-GPIO3-Pad5)*%
X158650000Y-100500000D03*
%TD*%
D17*
%TO.P,C5,1*%
%TO.N,/mc/V+*%
X154800000Y-96400000D03*
%TO.P,C5,2*%
%TO.N,GND*%
X154800000Y-97950000D03*
%TD*%
D18*
%TO.P,C4,1*%
%TO.N,/mc/V+*%
X147000000Y-96450000D03*
%TO.P,C4,2*%
%TO.N,GND*%
X147000000Y-98350000D03*
%TD*%
%TO.P,C3,1*%
%TO.N,/mc/V+*%
X149000000Y-96450000D03*
%TO.P,C3,2*%
%TO.N,GND*%
X149000000Y-98350000D03*
%TD*%
%TO.P,C2,1*%
%TO.N,/mc/V+*%
X151000000Y-96450000D03*
%TO.P,C2,2*%
%TO.N,GND*%
X151000000Y-98350000D03*
%TD*%
%TO.P,C1,1*%
%TO.N,/mc/V+*%
X153000000Y-96450000D03*
%TO.P,C1,2*%
%TO.N,GND*%
X153000000Y-98350000D03*
%TD*%
D19*
%TO.N,/mc/VREF*%
X152400000Y-101650000D03*
X145100000Y-98450000D03*
%TO.N,/mc/OUT2*%
X156250000Y-93250000D03*
X156200000Y-95800000D03*
%TO.N,GND*%
X156425000Y-91375000D03*
X150000000Y-98350000D03*
%TO.N,/mc/V+*%
X148000000Y-96400000D03*
%TO.N,/mc/IN2*%
X145500000Y-92850000D03*
X145500000Y-94300000D03*
%TD*%
D20*
%TO.N,/mc/V+*%
X148050000Y-96450000D02*
X148000000Y-96400000D01*
X149000000Y-96450000D02*
X148050000Y-96450000D01*
D21*
%TO.N,/mc/OUT2*%
X155477000Y-91477000D02*
X156250000Y-92250000D01*
%TO.N,/mc/ISEN*%
X153075000Y-92245000D02*
X155095000Y-92245000D01*
%TO.N,/mc/OUT1*%
X156050000Y-94500000D02*
X158650000Y-94500000D01*
X155065000Y-93515000D02*
X156050000Y-94500000D01*
%TO.N,/mc/OUT2*%
X153577000Y-91477000D02*
X155477000Y-91477000D01*
D20*
%TO.N,/mc/V+*%
X153075000Y-96375000D02*
X153000000Y-96450000D01*
X153075000Y-94785000D02*
X153075000Y-96375000D01*
D21*
%TO.N,/mc/OUT1*%
X153075000Y-93515000D02*
X155065000Y-93515000D01*
D20*
%TO.N,/mc/VREF*%
X145100000Y-96130000D02*
X145100000Y-98450000D01*
X147325000Y-94785000D02*
X146445000Y-94785000D01*
D21*
%TO.N,/mc/IN1*%
X145535000Y-93515000D02*
X147325000Y-93515000D01*
%TO.N,/mc/ISEN*%
X155095000Y-92245000D02*
X155200000Y-92350000D01*
%TO.N,/mc/IN1*%
X142350000Y-94500000D02*
X144550000Y-94500000D01*
D20*
%TO.N,GND*%
X145675000Y-90975000D02*
X147325000Y-90975000D01*
%TO.N,/mc/VREF*%
X146445000Y-94785000D02*
X145100000Y-96130000D01*
%TO.N,GND*%
X144150000Y-92500000D02*
X145675000Y-90975000D01*
X147325000Y-90975000D02*
X148295000Y-90975000D01*
X148295000Y-90975000D02*
X150200000Y-92880000D01*
D21*
%TO.N,/mc/IN2*%
X145500000Y-92850000D02*
X146105000Y-92245000D01*
D20*
%TO.N,GND*%
X142350000Y-92500000D02*
X144150000Y-92500000D01*
D21*
%TO.N,/mc/OUT2*%
X153075000Y-90975000D02*
X153577000Y-91477000D01*
%TO.N,/mc/IN2*%
X146105000Y-92245000D02*
X147325000Y-92245000D01*
%TO.N,/mc/OUT2*%
X156250000Y-92250000D02*
X156250000Y-93250000D01*
%TO.N,/mc/IN1*%
X144550000Y-94500000D02*
X145535000Y-93515000D01*
D20*
%TO.N,/mc/VREF*%
X145100000Y-100975241D02*
X145100000Y-98450000D01*
X146451759Y-102327000D02*
X145100000Y-100975241D01*
X151723000Y-102327000D02*
X146451759Y-102327000D01*
X152400000Y-101650000D02*
X151723000Y-102327000D01*
D21*
%TO.N,/mc/OUT2*%
X156900000Y-96500000D02*
X158650000Y-96500000D01*
X156200000Y-95800000D02*
X156900000Y-96500000D01*
D20*
%TO.N,GND*%
X156425000Y-91375000D02*
X155850000Y-90800000D01*
X157550000Y-92500000D02*
X156425000Y-91375000D01*
X155850000Y-90800000D02*
X155200000Y-90800000D01*
X158650000Y-92500000D02*
X157550000Y-92500000D01*
X153400000Y-97950000D02*
X153000000Y-98350000D01*
X154800000Y-97950000D02*
X153400000Y-97950000D01*
X153000000Y-98350000D02*
X150000000Y-98350000D01*
X147000000Y-98350000D02*
X150000000Y-98350000D01*
%TO.N,/mc/V+*%
X151000000Y-96450000D02*
X149000000Y-96450000D01*
X153000000Y-96450000D02*
X151000000Y-96450000D01*
X153050000Y-96400000D02*
X153000000Y-96450000D01*
X154800000Y-96400000D02*
X153050000Y-96400000D01*
X147050000Y-96400000D02*
X147000000Y-96450000D01*
X148000000Y-96400000D02*
X147050000Y-96400000D01*
D21*
%TO.N,/mc/IN2*%
X143300000Y-96500000D02*
X145500000Y-94300000D01*
X142350000Y-96500000D02*
X143300000Y-96500000D01*
%TD*%
M02*
